# xmcd CD database file
# Copyright (C) 1993-1998 Ti Kan
#
# Track frame offsets:
#	150
#	16875
#	30150
#	45000
#	57987
#	74262
#	89087
#	102075
#	115275
#	126675
#
# Disc length: 1895 seconds
#
# Revision: 1
# Processed by: cddbd v1.4b41PL1 Copyright (c) Steve Scherf et al.
# Submitted via: CDValet v3.31 - Copyright (c) 1997 Greg Leichner
#
DISCID=7e07650a
DTITLE=Mark Collie - Even The Man In The Moon Is Cryin'
DYEAR=1900
DGENRE=
TTITLE0=Even The Man In The Moon Is Cryin'
TTITLE1=Shame Shame Shame Shame
TTITLE2=It Don't Take A Lot
TTITLE3=She's Never Comin' Back
TTITLE4=Something's Gonna Change Her Mind
TTITLE5=Calloused Hands
TTITLE6=Let Her Go
TTITLE7=Looks Aren't Everything
TTITLE8=Something With a Ring To It
TTITLE9=Hardin County Line
EXTD=
EXTT0=
EXTT1=
EXTT2=
EXTT3=
EXTT4=
EXTT5=
EXTT6=
EXTT7=
EXTT8=
EXTT9=
PLAYORDER=
